<?xml version="1.0" encoding="utf-8"?>
<!-- Generator: Adobe Illustrator 22.1.0, SVG Export Plug-In . SVG Version: 6.00 Build 0)  -->
<svg version="1.1" id="Capa_1" xmlns="http://www.w3.org/2000/svg" xmlns:xlink="http://www.w3.org/1999/xlink" x="0px" y="0px"
	 viewBox="0 0 122 152" style="enable-background:new 0 0 122 152;" xml:space="preserve">
<style type="text/css">
	.st0{fill:#52CB66;}
</style>
<g>
	<path class="st0" d="M51.7,98.9c3.1-1.6,5.6-1.9,8-1.9c4.2,0,4.9-1.6,2.9-5.1c-0.7-1.3-1.1-2.7-1.7-4.1c2.1-0.8,2.1,2.1,4,1.7
		c0.7-19.6,1.4-39.2,2.2-58.9c0.6,0,1.2,0,1.8,0c0.7,19.7,1.5,39.3,2.2,59.7c1.4-1.3,2.3-2.2,3.4-3.1c0.8,2.1-0.4,3.5-1.2,4.8
		c-2,3.6-1.1,5.1,3,5.1c2.4,0,5,0.2,7.6,1.7c-2.5,2.2-5.3,1.9-8,2.1c-3.2,0.3-4.8,0.9-2.9,4.5c1.2,2.1,0.4,2-0.8,4.8
		c-1.1,2.5-1.1,5.9,0.3,8.2c1,1.8,3.4,0.1,4.9-0.6c9.2-4.4,14.3-11.7,14.5-22.1c0.2-7.2-1-14.3-4.1-20.9c-0.8-1.8-1.3-3,0.3-4.9
		c8.1-9.4,10.2-19.9,5.2-31.5c-0.1-0.3,0-0.6,0-0.9c11.4,1.9,16.9,22.9,11.4,45.2c6.1-6.1,6.8-13.5,8.7-20.4
		c4.5,12.1,2.7,23.4-4.5,33.9c2.2,0.9,2.9-1.6,4.5-1.1c0.5,12-21.2,28.5-40.4,30.6c-21.6,2.4-47.9-13.3-50.8-30.4
		c1.8-1.1,2.6,1.7,4.9,1c-7.2-10.7-9.1-22-4.6-34.1c2,6.7,2.5,14,8.2,19.2c-3.9-11.8-4.2-23.3,2-34.3c2.3-4.1,5.1-8,10-10.2
		c-3.3,6.6-3.3,13.2-1.8,20c1,4.6,2.6,9.1,6.2,12.3c2.2,2,1.9,3.7,0.8,6.1c-3.2,6.9-4.2,14.3-3.9,21.9c0.5,9.4,7.1,18.2,15.9,21.1
		c1.4,0.5,3.1,1.9,4-0.8c0.9-2.7-0.1-7.3-1.7-7.2c-1.6,0.1-1.1-0.7-1-1.4c0.2-0.8,0.5-1.6,1-2.3c2.6-4,1.8-5.9-3.3-5.9
		C56.8,100.8,54.4,100.5,51.7,98.9z"/>
</g>
</svg>
