<?xml version="1.0" encoding="utf-8"?>
<!-- Generator: Adobe Illustrator 22.1.0, SVG Export Plug-In . SVG Version: 6.00 Build 0)  -->
<svg version="1.1" id="Capa_1" xmlns="http://www.w3.org/2000/svg" xmlns:xlink="http://www.w3.org/1999/xlink" x="0px" y="0px"
	 viewBox="0 0 122 152" style="enable-background:new 0 0 122 152;" xml:space="preserve">
<style type="text/css">
	.st0{fill:#FE8E40;}
	.st1{fill:#FD8E40;}
	.st2{fill:#22232E;}
	.st3{fill:#342C2F;}
</style>
<g>
	<path class="st0" d="M90.6,86.7C75,84.9,67,88.2,62,98.1c-4.8,9.7-2.4,18.2,7.9,28.7c-16.3,8.9-39.3-2.3-44.7-22.2
		c12.6,2.9,23,0.1,28.6-12.3c4.5-9.9,1.3-18.5-6.8-26.4c9.2,0,18.2-1.6,26.2,0.4C82.6,68.6,87.5,77.1,90.6,86.7z"/>
	<path class="st0" d="M59.4,25.3c0.4,3.4,0.8,6.1,1.1,8.8c0.1,0.8,0.3,1.7,1.4,1.7c1.2-0.1,1-1.1,1-1.9c0.4-5.3,0.7-10.6,1.1-16.2
		c2.6,1.3,1.7,3.4,1.9,4.9c0.2,1.8,0.4,3.7,0.3,5.5c-0.2,5.6,0.7,10.4,6.4,13.7c4.2,2.5,6,7.4,6.9,12.3c0.8,4.2-1.8,7.6-6.2,7.6
		c-10.3,0.1-20.6,0.1-30.9,0c-4.4-0.1-7.1-3.4-6.2-7.6c1.7-8.5,6.6-14.9,15-17c5-1.3,7-3.3,6.6-8.2C57.6,27.9,57.6,26.8,59.4,25.3z"
		/>
	<path class="st1" d="M23.7,93.8c1.1-9.8,4.7-17.4,11.4-23.5c1.6-1.4,3.1-2.4,5.3-1.2c2.7,1.5,5.2,3.1,6.5,5.9
		c0.6,1.4-1,1.9-1.8,2.6c-1.1,0.8-2.2,1.5-1.7,3.2c0.4,1.6,1.3,2.2,2.8,2.2c3.9,0,3.8,2.1,2.9,4.9c-0.8,2.6-2.1,4.9-3.9,6.8
		c-2,2.1-3.6,3.2-5.7-0.1c-1.8-2.8-4-2-4.9,0.9c-0.7,2.2-0.3,5.1-4,3.7C27.5,98.2,23.2,98.1,23.7,93.8z"/>
	<path class="st1" d="M91.6,99.9c-0.8,7.6-4.7,15.4-11.8,21.7c-1.9,1.6-3.5,1.3-5.4,0.2c-2.4-1.5-4.9-3-5.8-5.8
		c-0.4-1.1,0.9-1.6,1.7-2.2c1.3-0.9,2.4-1.7,1.8-3.6c-0.5-1.7-1.7-1.9-3-2c-3.1,0-3.6-1.6-2.8-4.2c0.9-2.9,2.2-5.5,4.4-7.7
		c1.9-2,3.4-2.7,5.4,0.2c1.9,2.7,4.4,2.1,5.1-1.1c0.5-2.3,0.5-4.6,3.8-3.4C87.9,93.1,92.3,93,91.6,99.9z"/>
	<path class="st2" d="M53.8,41.6c3.8,0.6,6.1,2.6,5.9,6.4c-0.2,3.7-2.6,5.8-6.3,5.6c-3.4-0.2-5.5-2.5-5.5-5.9
		C47.9,43.9,50.4,42.1,53.8,41.6z"/>
	<path class="st3" d="M66.6,49.6c2.1,0.3,3.2,1.3,3.1,3.2c-0.1,1.6-1.2,2.7-2.9,2.7c-1.9,0-3-1.2-2.9-3.1C64,50.7,65.2,50,66.6,49.6
		z"/>
</g>
</svg>
