<?xml version="1.0" encoding="utf-8"?>
<!-- Generator: Adobe Illustrator 22.1.0, SVG Export Plug-In . SVG Version: 6.00 Build 0)  -->
<svg version="1.1" id="Capa_1" xmlns="http://www.w3.org/2000/svg" xmlns:xlink="http://www.w3.org/1999/xlink" x="0px" y="0px"
	 viewBox="0 0 122 152" style="enable-background:new 0 0 122 152;" xml:space="preserve">
<style type="text/css">
	.st0{fill:#BE734D;}
	.st1{fill:#21232E;}
	.st2{fill:#24242F;}
	.st3{fill:#25252F;}
	.st4{fill:#25242F;}
	.st5{fill:#27252F;}
	.st6{fill:#23242E;}
</style>
<g>
	<path class="st0" d="M79.5,116c-1.8,2.3-3.4,4.2-4.7,6.3c-2,3-3.6,3.5-4.9-0.8c-1.6,1.4-2.7,2.8-4.2,3.7c-1.9,1.2-4.6,5.2-5.4-1
		c-0.2-1.9-2-1.2-3.2-0.8c-7.1,2.2-7.4,2.1-11-4.5c-0.9-1.6-1-5.2-4.4-1.7c-1.1,1.1-2.6-1-3.6-2c-5.9-5.7-8.4-13-9.6-20.9
		c-0.3-1.8,0.8-4.5-2.8-4.5c-0.4,0-1.1-2.3-1.2-3.5c-0.5-4-0.8-8.2,0.8-11.9c4.4-10.1,2.3-21.1,5-31.3c0.7-2.6-0.4-7,5.1-5.9
		c1.2,0.2,1.1-1.8,1.4-2.8C40.8,23.5,49.5,18.5,60,16.1c0.9-0.2,2.6-0.5,2.7,0.4c0.5,4.7,4.5,3.5,7.1,4.3c7.4,2.3,13,6.7,16.7,13.4
		c1,1.7,1.4,3.8,4.3,2.7c1.7-0.6,2.1,1.1,2.4,2.5c0.6,3.1,1.4,6.2,1.8,9.3c1.2,8.5,0.4,17.2,4,25.4c1.5,3.3,1.4,7.2,0.9,10.9
		c-0.3,1.9,0.8,5-3.1,5c-1.2,0-0.8,1.6-0.8,2.6c-0.3,10.3-6.9,17.4-12.4,25.1C81.1,121.1,80.9,116.6,79.5,116z"/>
	<path class="st1" d="M62.2,81.8c-2.7-0.5-5.1-1.9-8.3-0.7c-1.4,0.5-2.6-3.2-0.7-5.1c1.9-2,4.2-3.8,6.5-5.4c1.6-1.1,3.5-1.1,5.1,0.1
		c2.1,1.6,4.2,3.3,6.1,5.1c1.4,1.3,1.5,2.9,0.5,4.5c-0.9,1.5-1.9,1.4-3.2,0.4C65.9,78.9,64.4,82.3,62.2,81.8z"/>
	<path class="st2" d="M76.6,92.3c-10,2.1-18.9,2-28.2,0.2C53.3,86.5,68.7,86.2,76.6,92.3z"/>
	<path class="st3" d="M60.2,57.1c-2.3,0.6-4.6-4.3-5.4,1.1c-0.2,1.3-1.9,0.3-3-0.1c-2-0.9-3.9-1.8-5.9-2.6c-2.1-0.8-4.4-1.6-3.7,2.4
		c0.2,1.5-0.9,1.9-2.3,1.7c-2.3-0.3-4.6-0.5-6.9-0.7c-0.4-1.8,1.2-1.7,2.1-2.1c0.8-0.3,2.2-0.5,2.2-0.9c1.2-9,7-2.6,10.6-3.2
		c1.1-0.2,2.6,1.3,2.8-1.2c0.2-1.8,1.5-1.4,2.6-0.8C56,52.1,58.4,54,60.2,57.1z"/>
	<path class="st4" d="M91.4,58.7c-2.4,0.3-4.8,0.5-7.2,0.8c-0.9,0.1-2-0.1-2-1c0-7.4-4.2-2.2-6.5-2.1c-1.4,0.1-2.7,1.2-4,1.9
		c-0.8,0.4-2.1,0.7-2.2-0.1c-0.6-4.9-3.2-1.1-5.5-1c1.7-3.4,4.1-5.2,6.8-6.7c0.5-0.3,1.7-0.5,1.8-0.5c1.9,4.6,5.2,1.1,7.8,1.5
		c2.4,0.4,6.9-3,6.2,3.5c-0.1,0.7,3.2,1.7,4.9,2.6C91.5,58.1,91.4,58.4,91.4,58.7z"/>
	<path class="st5" d="M81.3,104.9c0.5-3.3,1.2-6.5,0.6-9.8c-0.1-0.5-0.1-1.1,0.1-1.5c2.2-3.9,1.7-5.2-2.7-6.9c-1.5-0.6-3-0.9-5-1.5
		c2.2-2.2,4.4-0.4,6.7-0.8c-0.5-3.2-4.4-4.6-4.4-9.1c5.9,5.1,11.2,9.5,11.5,17.2c0,1.6,1.8,5.3-3,4.2c-1.2-0.3-0.8,1.5-1,2.3
		C83.7,101.2,83.6,103.4,81.3,104.9z"/>
	<path class="st5" d="M50,85.1c-2.7,1-5,1.5-7,2.6c-3.1,1.7-3.2,2.8-1,5.6c0.8,1.1,0.3,2.3,0.1,3.4c-0.4,2.8,0.7,5.5,1.1,8.3
		c-2-0.2-1.9-1.6-2.5-2.5c-1.2-2,0.8-6-3.9-5.8c-0.8,0-0.8-2.3-0.8-3.7c0.2-7.4,4.9-11.9,10.6-16.6c0.7,4.2-3.2,5.4-3.9,8.1
		C45,85.3,47.3,83,50,85.1z"/>
	<path class="st6" d="M50.1,70c-2.1-0.6-5.7,1-5.7-3c0-3.2,2.5-5.1,5.7-5c3.2,0,5.7,1.9,5.7,5.1C55.8,70.9,52.2,69.3,50.1,70z"/>
	<path class="st6" d="M74.2,70c-2.1-0.7-5.7,1-5.8-2.9c0-3.2,2.5-5.1,5.7-5.1c3.2,0,5.7,1.8,5.8,5C79.9,70.9,76.3,69.3,74.2,70z"/>
</g>
</svg>
