<?xml version="1.0" encoding="utf-8"?>
<!-- Generator: Adobe Illustrator 22.1.0, SVG Export Plug-In . SVG Version: 6.00 Build 0)  -->
<svg version="1.1" id="Capa_1" xmlns="http://www.w3.org/2000/svg" xmlns:xlink="http://www.w3.org/1999/xlink" x="0px" y="0px"
	 viewBox="0 0 122 152" style="enable-background:new 0 0 122 152;" xml:space="preserve">
<style type="text/css">
	.st0{fill:#FECB33;}
</style>
<g>
	<path class="st0" d="M70.1,54.8c1.8-7.8,1.5-15.2,2.2-22.4c0.4-3.7,1.3-4.3,4.9-3.3c10.6,3,19.5,7.7,22.7,19.3
		c0.9,3.5,4.9,4.9,5.9,8.5c3.7,13.9,4.7,27.9-0.2,41.7c-2,5.7-5.7,10.4-13.3,11.9c1.6-2.8,2.8-4.6,3.9-6.6c1.3-2.5,3.9-5-0.4-7.4
		c-1.5-0.8-0.4-2.4-0.1-3.7c1.4-6.4,2-12.8,2.8-19.2c0.5-3.8-0.6-5.9-4.4-7c-20.9-5.7-41.7-5.8-62.6,0c-3.5,1-5,2.8-4.5,6.5
		c0.8,5.8,1.1,11.6,2.4,17.3c0.6,2.7,2.5,5.7-1.5,7.7c-1.4,0.7-0.3,2.5,0.3,3.6c1.4,2.6,3,5.2,4.7,8.2c-4.3,0-6.6-2.5-8.7-5.1
		c-4.9-6.1-6.5-13.4-7.2-20.9c-0.6-7.3-0.3-14.7,1-21.9c0.7-3.9,1.9-7.7,5.4-10.3c2.1-1.6,2.5-4.3,3.4-6.6
		c3.3-8.3,15.2-16.5,23.8-16.7c2.4,0,2.2,1.5,2.3,3c0.6,6.5,1.1,12.9,1.7,19.4c0.1,1.1-0.1,2.3,0.9,3.3c2.1-0.7,1.2-2.5,1.2-3.7
		c0.1-7.8,0.3-15.7,0-23.5c-0.2-5.2,3.2-4.5,6.3-4.5c3.1-0.1,6-0.2,5.8,4.5c-0.3,7.5-0.1,15,0,22.5C68.7,50.9,68.1,52.6,70.1,54.8z"
		/>
	<path class="st0" d="M62.9,66.3c9.2,0,18.2,1.3,27.2,3.1c3,0.6,4.8,1.7,4,5.3c-0.5,2.1-0.3,4.3-0.5,6.5C93,89.4,86.5,94,78.6,91.8
		c-3.9-1.1-7.3-3.2-10.6-5.4c-3.6-2.4-7-2.4-10.6,0c-3.3,2.2-6.7,4.4-10.6,5.4c-7.9,2.1-14.4-2.4-15-10.7
		c-0.9-11.1-0.8-11.1,10.4-13C49,67,55.9,66.3,62.9,66.3z"/>
</g>
</svg>
