<?xml version="1.0" encoding="utf-8"?>
<!-- Generator: Adobe Illustrator 22.1.0, SVG Export Plug-In . SVG Version: 6.00 Build 0)  -->
<svg version="1.1" id="Capa_1" xmlns="http://www.w3.org/2000/svg" xmlns:xlink="http://www.w3.org/1999/xlink" x="0px" y="0px"
	 viewBox="0 0 122 152" style="enable-background:new 0 0 122 152;" xml:space="preserve">
<style type="text/css">
	.st0{fill:#989EBE;}
	.st1{fill:#21232F;}
</style>
<g>
	<path class="st0" d="M77.3,115.9c-4.3,0-7.4-2.1-9.4-5.7c-1.7-3-3.1-6.3-4.9-9.3c-2.5-4.1-5.4-4.1-8,0.1c-1.7,2.8-2.9,6-4.6,8.8
		c-3.9,6.6-10.2,7.9-16.6,3.5c-4.9-3.4-7.7-8.3-9.6-13.7c-0.8-2.3-1.9-3.8-4.3-5c-6.1-3.1-7-11.2-1.6-15.3c2.2-1.7,2.5-3.5,2.7-5.8
		c0.4-4.4,1.3-8.7,6-10.7c2.1-0.9,3.5-1.2,4,2c1.2,7.3,5.8,9,12.1,5c3.7-2.4,6.3-5.9,9.3-9c4.1-4.3,8.8-4.3,12.8,0.1
		c2.9,3.2,5.6,6.6,9.3,9c6.4,4,10.9,2.2,12.1-5.1c0.6-3.3,2.1-2.8,4.1-1.9c4.7,2,5.6,6.3,5.9,10.7c0.2,2.4,0.6,4.1,2.8,5.8
		c5.4,4.2,4.4,12.2-1.7,15.3c-2.4,1.2-3.4,2.7-4.2,5c-1.4,4.1-3.5,7.9-6.6,11.1C84.4,113.6,81.2,115.7,77.3,115.9z"/>
	<path class="st0" d="M92.9,52.4c0.4,2.5-0.5,3.4-3.4,2.8c-20.3-4.3-40.7-4.3-61,0c-3.4,0.7-3.6-0.7-3.5-3.3
		c0.5-11.3,6.2-19,17.1-21.9c11.3-3,22.8-3,34.1,0.1C86.9,32.9,92.9,41.2,92.9,52.4z"/>
	<path class="st1" d="M79.8,89.9c-7.4-2-12.8-8.2-21-8.1c-8,0.1-13.3,6.1-20.5,8.1c5.3-6.7,10.4-13.5,19.2-15.8
		c1.2-0.3,2.7-0.2,3.9,0.2C69.6,76.9,74.6,83.4,79.8,89.9z"/>
	<path class="st1" d="M76.9,111.9c-3.6-0.6-5.9-2.5-5.7-6.3c0.2-3.7,2.6-5.8,6.3-5.6c3.4,0.2,5.5,2.4,5.5,5.9
		C82.9,109.6,80.5,111.5,76.9,111.9z"/>
	<path class="st1" d="M41.2,111.9c-3.6-0.4-6-2.3-6-6c0-3.7,2.3-5.9,6-5.9c3.5,0,5.6,2.2,5.8,5.6C47.1,109.3,44.8,111.3,41.2,111.9z
		"/>
</g>
</svg>
