<?xml version="1.0" encoding="utf-8"?>
<!-- Generator: Adobe Illustrator 23.0.3, SVG Export Plug-In . SVG Version: 6.00 Build 0)  -->
<svg version="1.1" id="Capa_1" xmlns="http://www.w3.org/2000/svg" xmlns:xlink="http://www.w3.org/1999/xlink" x="0px" y="0px"
	 viewBox="0 0 139 143" style="enable-background:new 0 0 139 143;" xml:space="preserve">
<style type="text/css">
	.st0{fill:#FFFFFF;}
</style>
<path class="st0" d="M111.96,36.68c4.73-4.77,9.23-9.42,13.88-13.91c0.97-0.93,2.48-1.3,3.74-1.93c0.5,1.3,1.38,2.59,1.45,3.92
	c0.45,8.43,0.29,16.65-6.54,23.19c-1.44,1.38-1.12,4.46-2.37,6.23c-3.02,4.29-7.69,5.94-12.71,5.58
	c-9.31-0.66-15.95,3.17-22.08,10.07c-17.7,19.9-35.95,39.31-54.01,58.9c-1.35,1.47-2.71,2.96-4.24,4.22
	c-6.29,5.19-15.35,4.67-20.83-1.11c-5.37-5.66-5.68-14.53-0.37-20.46c3.1-3.46,6.69-6.48,10.12-9.63
	C36.75,84.5,55.47,67.23,74.28,50.04c4.03-3.68,6.22-8,6.56-13.49C81.69,22.93,95.9,9.53,109.5,9.62c3.45,0.02,6.88,1,10.33,1.54
	c-2.07,2.67-4.1,5.38-6.23,8.01c-0.94,1.16-2.09,2.14-3.15,3.2C104.16,28.68,104.27,30.46,111.96,36.68z M112,15.34
	c-12.32-2.04-25.72,9.04-26.61,20.59c-0.58,7.46-3.56,13.22-9.05,18.19C59.43,69.44,42.7,84.96,25.91,100.4
	c-1.67,1.54-3.3,3.11-5.5,5.2c8.51,1.56,13,6.37,14.82,14.51c1.92-2.06,3.28-3.48,4.61-4.93C54.6,99.12,69.59,83.26,84.02,66.9
	c6.89-7.81,14.6-12.13,25.19-11.66c3.22,0.14,6.54-1.77,9.81-2.74c0.2-0.81,0.4-1.63,0.59-2.44c-4.86-4.49-9.83-8.88-14.55-13.51
	c-4.67-4.58-4.75-9.76-0.31-14.56C106.97,19.58,109.57,17.54,112,15.34z M30.53,121.24c0.11-5.75-4.81-10.87-10.66-11.11
	c-5.77-0.23-10.98,4.67-11.16,10.51c-0.19,6.24,4.62,11.26,10.82,11.3C25.43,131.97,30.42,127.11,30.53,121.24z M126.41,30.53
	c-3.48,3.07-7.27,6.42-11.1,9.79c1.51,1.8,2.98,3.54,4.37,5.2C125.76,40.73,127.33,36.62,126.41,30.53z"/>
<path class="st0" d="M36.56,106.43c-0.6-1.56-1.46-2.69-1.27-3.61c0.2-0.99,1.32-1.85,2.14-2.67C50.72,86.84,64,73.51,77.41,60.32
	c1.11-1.09,3.21-1.18,4.84-1.74c-0.57,1.53-0.74,3.46-1.78,4.52c-13.32,13.52-26.77,26.91-40.2,40.32
	C39.36,104.33,38.26,105.06,36.56,106.43z"/>
<path class="st0" d="M104.65,43.16c-0.77,3.97-5.74,9.75-8.1,8.68c-3.08-1.39-6.08-4.14-7.77-7.08c-1.36-2.36,4.57-8.72,7.26-7.7
	C99.22,38.26,101.8,41.05,104.65,43.16z"/>
<path class="st0" d="M26.02,120.44c-0.02,4.23-3.13,7.47-6.66,7.14c-3.8-0.36-6.06-2.64-6.32-6.47c-0.24-3.63,2.92-6.63,6.7-6.43
	C23.67,114.88,25.74,117.09,26.02,120.44z"/>
</svg>
