<?xml version="1.0" encoding="utf-8"?>
<!-- Generator: Adobe Illustrator 22.1.0, SVG Export Plug-In . SVG Version: 6.00 Build 0)  -->
<svg version="1.1" id="Capa_1" xmlns="http://www.w3.org/2000/svg" xmlns:xlink="http://www.w3.org/1999/xlink" x="0px" y="0px"
	 viewBox="0 0 270 276.9" style="enable-background:new 0 0 270 276.9;" xml:space="preserve">
<style type="text/css">
	.st0{fill:#FFFFFF;}
</style>
<g>
	<path class="st0" d="M213.4,250.5c-2.7,0-5.3,0-8,0c-4.3-2.1-9-3.5-12.7-6.3c-9.4-7.3-11.1-17.4-8.6-28.7c-27,0-53.7,0-79.4,0
		c-0.3,5.5,0.1,10.8-1,15.6c-2.6,11-10.9,16.5-21.2,19.4c-2.7,0-5.3,0-8,0c-0.8-0.3-1.5-0.7-2.3-0.9c-11.7-2.9-19.6-12.7-20.2-24.8
		c-0.5-11.6,6.9-22.2,18-26c1.2-0.4,2.4-0.8,3.7-1.2c-1.6-7.6-3.5-14.8-4.8-22.1c-7.6-42.7-15.1-85.3-22.5-128
		c-0.6-3.4-1.9-4.3-5.2-4.3c-7.3,0-14.6-0.4-21.9-0.6c0-5.7,0-11.3,0-17c13.7,0,27.3,0,41,0c2.3,13.4,5,26.8,6.8,40.3
		c0.7,5.8,3.1,7.2,8.3,7.8c18.2,1.9,36.3,4.2,54.5,6.3c23.9,2.9,47.9,5.7,71.8,8.6c13.8,1.7,27.7,3.4,42.2,5.1
		c-7.2,31.5-14.3,62.4-21.5,93.7c-44.4,0-88.3,0-132.2,0c0.8,10.2,0.8,10.2,10.2,10.2c36.3,0,72.6-0.1,108.9,0
		c18.9,0.1,31.7,19.1,24.5,36.5C230,243.2,222.6,247.9,213.4,250.5z M85.7,169.5c2.1,0,3.9,0,5.8,0c35.3,0,70.6,0,105.9,0
		c11.1,0,11.1,0,13.5-10.6c3.8-16.6,7.6-33.2,11.5-50.3c-50.5-6-100.5-12-151-18.1C76.2,117.3,80.9,143.3,85.7,169.5z M87.3,223.8
		c-0.2-4.8-4.3-8.6-9.1-8.6c-4.9,0.1-8.8,4.1-8.7,8.9c0.1,4.8,4.2,8.6,9.1,8.5C83.3,232.6,87.4,228.4,87.3,223.8z M218.3,224.1
		c0-4.8-4-8.8-8.8-8.8c-5-0.1-9,3.8-9,8.6c0,4.8,3.9,8.8,8.8,8.9C214.1,232.7,218.2,228.8,218.3,224.1z"/>
</g>
</svg>
