<?xml version="1.0" encoding="utf-8"?>
<!-- Generator: Adobe Illustrator 23.0.3, SVG Export Plug-In . SVG Version: 6.00 Build 0)  -->
<svg version="1.1" id="Capa_1" xmlns="http://www.w3.org/2000/svg" xmlns:xlink="http://www.w3.org/1999/xlink" x="0px" y="0px"
	 viewBox="0 0 161 230" style="enable-background:new 0 0 161 230;" xml:space="preserve">
<style type="text/css">
	.st0{fill:#FFFFFF;}
</style>
<g>
	<path class="st0" d="M86,2c5.15,1.18,10.41,1.98,15.41,3.59c28.78,9.29,47.36,34.85,47.86,65.5c0.46,28.56-17.64,54.63-45.33,64.72
		c-4.1,1.49-5.77,3.26-5.5,7.74c0.42,6.97,0.32,13.99,0.04,20.98c-0.38,9.7-6.44,16.61-15.44,18.13
		c-7.86,1.33-16.22-3.45-19.1-11.23c-0.9-2.44-1.41-5.17-1.44-7.77c-0.14-13.49-0.2-26.98-0.02-40.47
		c0.16-11.8,7.31-18.76,19.1-19.07c17.46-0.46,31.73-15.19,31.7-32.72c-0.03-18.16-14.22-32.75-32.33-33.24
		c-17.23-0.47-32.47,13.84-33.27,31.24c-0.52,11.31-6.67,18.8-16.05,19.56C19.74,89.91,11.65,82,11.74,69.5
		c0.21-30.78,22.94-58.79,53.11-65.4C68.23,3.36,71.62,2.7,75,2C78.67,2,82.33,2,86,2z M80.54,11.02c-14,0-26.57,4.33-37.45,13.07
		C28.63,35.7,21.14,50.98,20.22,69.47c-0.21,4.11,1.01,8.07,4.95,9.55c2.63,0.99,6.28,0.96,8.9-0.07c3.93-1.54,4.73-5.5,4.87-9.61
		c0.89-25.63,25.52-44.57,50.36-38.84c20.64,4.76,34.19,23.03,32.73,44.14c-1.42,20.53-18.35,36.7-40.05,38.26
		c-7.83,0.56-10.76,3.55-10.79,11.27c-0.05,13-0.06,26,0.01,39c0.04,6.67,3.62,10.75,9.21,10.77c5.64,0.02,9.34-4.04,9.42-10.6
		c0.09-8.16,0.02-16.33,0.03-24.5c0-7.74,0.01-7.74,7.45-9.9c29.11-8.45,47.05-37,42.55-67.72
		C135.69,32.89,109.88,11.06,80.54,11.02z"/>
	<path class="st0" d="M78,227c-1.19-0.49-2.38-1-3.58-1.46c-8.42-3.24-13.1-12.03-11.17-21c1.77-8.2,9.43-13.83,18.45-13.55
		c8.95,0.28,15.96,7.08,16.99,16.46c0.87,7.94-4.83,16.01-13,18.45c-0.92,0.28-1.8,0.73-2.69,1.1C81.33,227,79.67,227,78,227z
		 M89.91,208.64c-0.05-4.99-4.3-9.17-9.27-9.11c-4.98,0.06-9.26,4.4-9.14,9.27c0.13,5.07,4.29,9.14,9.3,9.09
		C85.81,217.84,89.96,213.63,89.91,208.64z"/>
	<path class="st0" d="M85.05,151.48c0,3.99,0.05,7.98-0.02,11.96c-0.06,3.06-1.61,5.67-4.69,5.03c-1.73-0.36-4.08-3.16-4.18-4.97
		c-0.46-8.11-0.24-16.27-0.19-24.41c0.02-3.07,1.54-5.66,4.7-4.94c1.74,0.4,3.9,3.02,4.19,4.9C85.5,143.1,85.05,147.32,85.05,151.48
		z"/>
	<path class="st0" d="M75.91,124.64c-0.01-3.77,0.63-6.78,4.62-6.75c3.99,0.03,4.52,3.05,4.56,6.29c0.04,3.33-0.8,6.29-4.63,6.27
		C76.65,130.43,75.77,127.44,75.91,124.64z"/>
</g>
</svg>
