<?xml version="1.0" encoding="utf-8"?>
<!-- Generator: Adobe Illustrator 23.0.3, SVG Export Plug-In . SVG Version: 6.00 Build 0)  -->
<svg version="1.1" id="Capa_1" xmlns="http://www.w3.org/2000/svg" xmlns:xlink="http://www.w3.org/1999/xlink" x="0px" y="0px"
	 viewBox="0 0 303 303" style="enable-background:new 0 0 303 303;" xml:space="preserve">
<style type="text/css">
	.st0{fill:#FFFFFF;}
</style>
<g>
	<path class="st0" d="M151.23,303C68.69,302.94,1.32,236.93-0.21,154.4C-1.78,69.65,65.79,1.32,148.82,0
		c83.89-1.33,152.67,65.61,153.92,149.14C304.01,234.05,235.64,302.97,151.23,303z M150,227.23c0,0,0,0.01,0,0.01
		c13.44,0,26.89,0.11,40.33-0.04c8.22-0.1,15.56-2.94,21.82-8.32c2.21-1.9,3.53-4.32,3.1-7.35c-0.58-4.11-0.85-8.32-1.97-12.29
		c-5.42-19.17-22.9-33.46-42.75-34.41c-12.72-0.61-25.49-0.24-38.23-0.25c-1.95,0-3.91,0.23-5.84,0.5
		c-23.04,3.28-40.26,22.06-41.68,45.19c-0.25,4.07,1.06,7.17,4.22,9.54c6.06,4.55,12.86,7.31,20.48,7.38
		C122.99,227.32,136.49,227.23,150,227.23z M189.22,115.05c0.09-21.49-17.32-39.21-38.62-39.29c-21.98-0.09-39.57,17.21-39.67,39.02
		c-0.1,21.68,17.41,39.23,39.21,39.29C171.63,154.12,189.13,136.65,189.22,115.05z"/>
	<path d="M150,227.23c-13.51,0-27.01,0.09-40.52-0.04c-7.63-0.07-14.42-2.83-20.48-7.38c-3.16-2.37-4.47-5.47-4.22-9.54
		c1.41-23.13,18.64-41.91,41.68-45.19c1.93-0.28,3.89-0.5,5.84-0.5c12.75,0.01,25.51-0.36,38.23,0.25
		c19.85,0.95,37.34,15.25,42.75,34.41c1.12,3.97,1.39,8.18,1.97,12.29c0.43,3.03-0.89,5.46-3.1,7.35
		c-6.26,5.38-13.6,8.23-21.82,8.32c-13.44,0.16-26.88,0.04-40.33,0.04C150,227.23,150,227.23,150,227.23z"/>
	<path d="M189.22,115.05c-0.09,21.6-17.59,39.08-39.08,39.02c-21.8-0.06-39.31-17.61-39.21-39.29
		c0.11-21.81,17.69-39.11,39.67-39.02C171.9,75.84,189.31,93.56,189.22,115.05z"/>
</g>
</svg>
