<?xml version="1.0" encoding="utf-8"?>
<!-- Generator: Adobe Illustrator 22.1.0, SVG Export Plug-In . SVG Version: 6.00 Build 0)  -->
<svg version="1.1" id="Capa_1" xmlns="http://www.w3.org/2000/svg" xmlns:xlink="http://www.w3.org/1999/xlink" x="0px" y="0px"
	 viewBox="0 0 418.6 418.7" style="enable-background:new 0 0 418.6 418.7;" xml:space="preserve">
<style type="text/css">
	.st0{fill:#FFFFFF;}
</style>
<g>
	<path class="st0" d="M304.6,252.3c8.4,8.4,16.7,16.7,25.1,25.1c25.9,25.9,51.9,51.8,77.7,77.8c15.3,15.4,14.9,39.1-0.7,53.5
		c-15,13.9-37,13.2-52.1-2c-34-33.9-67.9-67.8-101.9-101.7c-1.4-1.4-2.8-2.7-4.1-3.9c-74.5,45.2-165.9,24.7-215.2-39.4
		c-48.1-62.5-43.8-152.6,10.4-210.1C98.9-7.1,188.3-16.8,254.4,28.1c67.3,45.8,95.2,141.3,46.9,220.8
		C302.3,250,303.4,251.2,304.6,252.3z M46.5,163.1c0.3,64.4,52.3,116.1,116.7,115.8c64.4-0.3,116.1-52.5,115.7-116.8
		c-0.4-64.2-52.3-115.8-116.4-115.6C98,46.8,46.2,98.8,46.5,163.1z"/>
	<path class="st0" d="M147.7,73.5c-6.1,1.9-12.6,3.1-18.3,5.9c-23.5,11.6-40.7,29.7-51.3,53.7c-2.1,4.8-3.2,10.2-3.6,15.4
		c-0.6,9.6,6.3,17.2,15.8,18.7c9.1,1.4,17.8-4.1,20.3-13.2c6.2-22.5,20.1-36.9,42.8-42.9c9.5-2.5,15-11.3,13.6-20.5
		C165.6,80.9,157.9,74.4,147.7,73.5z"/>
</g>
</svg>
