<?xml version="1.0" encoding="utf-8"?>
<!-- Generator: Adobe Illustrator 22.1.0, SVG Export Plug-In . SVG Version: 6.00 Build 0)  -->
<svg version="1.1" xmlns="http://www.w3.org/2000/svg" xmlns:xlink="http://www.w3.org/1999/xlink" x="0px" y="0px"
	 viewBox="0 0 135 137" style="enable-background:new 0 0 135 137;" xml:space="preserve">
<style type="text/css">
	.st0{fill:#FFFFFF;}
	.st1{fill:#F9F9F9;}
	.st2{fill:#E3E3E3;}
	.st3{fill:#FBFBFB;}
</style>
<g id="Capa_3">
</g>
<g id="Capa_1">
	<path class="st0" d="M68.2,4c16.3,0,32.7,0,49,0C128.6,4,132,7.5,132,19c0,2.5,0,5,0,7.5c0,2-0.4,3.9-2.8,3.8
		c-2.2,0-2.4-1.9-2.4-3.6c0-3.3,0.1-6.7,0-10c-0.1-5.5-1.8-7.4-7.1-7.4c-34.3-0.1-68.6-0.1-103,0c-5.4,0-7.3,1.8-7.3,7.2
		C9.2,42,9.2,67.5,9.3,93c0,5.3,1.9,7,7.4,7c14.2,0,28.3,0,42.5,0c1.3,0,2.7,0,4,0.3c1.3,0.3,2,1.2,1.9,2.6
		c-0.1,1.4-0.9,2.2-2.2,2.3c-2.7,0.1-5.3,0.3-8,0.1c-2.6-0.2-3.6,0.9-3.8,3.4c-0.2,3.1-1.8,6.9-0.6,9.2c1.3,2.4,5.4,0.6,8.3,0.9
		c1.8,0.2,3.6,0.4,3.5,2.6c0,2-1.6,2.7-3.5,2.7c-4,0-8-0.1-12,0c-1,0-2.6-0.7-2.8,1c-0.2,2.2,1.6,1.6,2.8,1.7c11.5,0,23,0,34.5,0
		c13.2,0,26.3-0.1,39.5,0.1c4.3,0.1,5.9-1.4,5.9-5.8c-0.1-24.7-0.1-49.3,0-74c0-4.4-1.6-5.9-5.9-5.8c-14,0.2-28,0.2-42,0
		c-4.4-0.1-5.7,1.8-5.7,6c0.1,22.2,0.1,44.3,0.1,66.5c0,1.2,0,2.3,0,3.5c-0.1,1.9-0.1,4-2.7,3.9c-2.5-0.1-2.5-2.2-2.5-4.1
		c0-0.7,0-1.3,0-2c0-22.5,0-45,0-67.5C68,38.5,70.5,36,79.2,36c14.2,0,28.3,0,42.5,0c7.5,0,10.3,2.8,10.3,10.2c0,25.2,0,50.3,0,75.5
		c0,7.5-2.8,10.3-10.3,10.3c-27.5,0-55,0-82.5,0c-2.1,0-4.8,0.8-5.5-2.1c-0.7-2.9,1.8-3,3.8-3.3c1.3-0.2,1.2-1.4,1.2-2.4
		c0.1-2.6,1.3-4.3,3.8-5.3c1.6-0.6,4.3-12,3.2-13.1c-0.9-0.9-2.2-0.5-3.3-0.5c-8.3,0-16.7,0-25,0C7.8,105.2,4,101.5,4,92
		c0-24.8,0-49.7,0-74.5C4,7.9,8,4,17.8,4C34.6,4,51.4,4,68.2,4z"/>
	<path class="st0" d="M68.1,17.2c14.2,0,28.3,0,42.5,0c6.8,0,9.7,3.7,8.1,10.3c-0.4,1.6-1,2.9-2.9,2.8c-1.6-0.1-2.5-1.5-2.3-2.7
		c1-5.9-3.1-4.9-6.4-4.9c-26.6,0-53.3,0.1-79.9-0.1c-3.4,0-4.5,0.7-4.4,4.3c0.2,18.5,0.2,37,0,55.4c0,3.6,1,4.5,4.5,4.4
		c10.2-0.2,20.3-0.1,30.5-0.1c1.9,0,4.5-0.5,4.7,2.3c0.2,3.2-2.5,2.9-4.7,2.9c-11.2,0-22.3-0.1-33.5,0c-4.6,0-6.9-2.2-6.9-6.6
		c-0.1-20.5-0.1-41,0-61.4c0-5,2.1-6.7,7.8-6.7C39.4,17.2,53.7,17.2,68.1,17.2z"/>
	<path class="st0" d="M100.2,49.3c5.3,0,10.6,0,16,0c2,0,4.3-0.3,4.9,2.3c0.5,2.5-1.6,3-3.5,3.2c-2.2,0.2-1.6,1.9-1.5,3
		c0.3,3.7-1.5,5.1-5,5.1c-7.5-0.1-15,0-22.4,0c-1.7,0-3.9-0.2-4.2-1.9c-0.6-3.3-0.3-6.8-5-7.3c-0.2,0-0.6-1.6-0.4-2.2
		c0.5-1.7,2.1-2,3.6-2C88.5,49.2,94.3,49.3,100.2,49.3z"/>
	<path class="st0" d="M100,70.7c5.7,0,11.3,0,17,0c1.6,0,3.6-0.1,4,2.1c0.4,2.2-1.1,3.1-2.9,3.1c-3-0.1-2,2.1-2,3.4
		c0.1,3.5-1.5,4.7-4.9,4.7c-7.5-0.1-15,0-22.5,0c-1.5,0-3.6,0.2-3.9-1.4c-0.8-3.5-1.2-6.3-5.3-8.3c-2.1-1,0.5-3.5,3.1-3.5
		C88.4,70.7,94.2,70.7,100,70.7z"/>
	<path class="st0" d="M100.1,94.8c5.7,0,10.5,4.7,10.5,10.4c0,5.5-4.9,10.5-10.4,10.7c-5.7,0.1-10.9-5.1-10.8-10.8
		C89.5,99.4,94.3,94.8,100.1,94.8z"/>
	<path class="st1" d="M100.4,57.2c-3.2,0-6.3,0-9.5,0c-0.8,0-1.8-0.3-1.5-1.4c0.1-0.4,0.9-1,1.4-1c6-0.1,11.9-0.1,17.9,0
		c0.8,0,1.8,0.1,1.8,1.2c0,1.2-1,1.2-1.7,1.2C106,57.3,103.2,57.2,100.4,57.2z"/>
	<path class="st2" d="M99.8,76c3.2,0,6.3,0,9.5,0c0.6,0,1.4,0,1.5,0.9c0.1,1-0.3,1.8-1.3,1.8c-6.3,0.1-12.6,0.1-18.9,0
		c-0.4,0-1.1-0.8-1.2-1.3C89,76.3,89.9,76,90.8,76C93.8,76,96.8,76,99.8,76z"/>
	<path class="st3" d="M105.2,105.5c-0.3,3.2-2.2,5.1-5.2,5c-3.2,0-5.3-1.9-5.1-5.4c0.1-3.2,2.1-5,5.1-5
		C103.3,100.1,105,102.2,105.2,105.5z"/>
</g>
<g id="Capa_2">
	<path class="st0" d="M100.2,49.3c5.3,0,10.6,0,16,0c2,0,4.3-0.3,4.9,2.3c0.5,2.5-1.6,3-3.5,3.2c-2.2,0.2-1.6,1.9-1.5,3
		c0.3,3.7-1.5,5.1-5,5.1c-7.5-0.1-15,0-22.4,0c-1.7,0-3.9-0.2-4.2-1.9c-0.6-3.3-0.3-6.8-5-7.3c-0.2,0-0.6-1.6-0.4-2.2
		c0.5-1.7,2.1-2,3.6-2C88.5,49.2,94.3,49.3,100.2,49.3z"/>
	<path class="st0" d="M100,70.7c5.7,0,11.3,0,17,0c1.6,0,3.6-0.1,4,2.1c0.4,2.2-1.1,3.1-2.9,3.1c-3-0.1-2,2.1-2,3.4
		c0.1,3.5-1.5,4.7-4.9,4.7c-7.5-0.1-15,0-22.5,0c-1.5,0-3.6,0.2-3.9-1.4c-0.8-3.5-1.2-6.3-5.3-8.3c-2.1-1,0.5-3.5,3.1-3.5
		C88.4,70.7,94.2,70.7,100,70.7z"/>
	<path class="st0" d="M100.1,94.8c5.7,0,10.5,4.7,10.5,10.4c0,5.5-4.9,10.5-10.4,10.7c-5.7,0.1-10.9-5.1-10.8-10.8
		C89.5,99.4,94.3,94.8,100.1,94.8z"/>
	<path d="M100.4,57.2c-3.2,0-6.3,0-9.5,0c-0.8,0-1.8-0.3-1.5-1.4c0.1-0.4,0.9-1,1.4-1c6-0.1,11.9-0.1,17.9,0c0.8,0,1.8,0.1,1.8,1.2
		c0,1.2-1,1.2-1.7,1.2C106,57.3,103.2,57.2,100.4,57.2z"/>
	<path d="M99.8,76c3.2,0,6.3,0,9.5,0c0.6,0,1.4,0,1.5,0.9c0.1,1-0.3,1.8-1.3,1.8c-6.3,0.1-12.6,0.1-18.9,0c-0.4,0-1.1-0.8-1.2-1.3
		C89,76.3,89.9,76,90.8,76C93.8,76,96.8,76,99.8,76z"/>
	<path d="M105.2,105.5c-0.3,3.2-2.2,5.1-5.2,5c-3.2,0-5.3-1.9-5.1-5.4c0.1-3.2,2.1-5,5.1-5C103.3,100.1,105,102.2,105.2,105.5z"/>
</g>
</svg>
